<svg width="12" height="8" viewBox="0 0 12 8" fill="none" xmlns="http://www.w3.org/2000/svg">
<path fill-rule="evenodd" clip-rule="evenodd" d="M9.43935 1.6L6.75 4.46864L5.03032 2.63432C4.73745 2.32192 4.26257 2.32192 3.96967 2.63432L0.219668 6.63431C-0.0732225 6.94674 -0.0732225 7.45326 0.219668 7.76569C0.512565 8.0781 0.987435 8.0781 1.28033 7.76569L4.5 4.33136L6.21968 6.16569C6.51255 6.4781 6.98745 6.4781 7.28032 6.16569L10.5 2.73136V4.8C10.5 5.24184 10.8358 5.6 11.25 5.6C11.6642 5.6 12 5.24184 12 4.8V0.8C12 0.35816 11.6642 0 11.25 0H7.5C7.08577 0 6.75 0.35816 6.75 0.8C6.75 1.24184 7.08577 1.6 7.5 1.6H9.43935Z" fill="#4AA147"/>
</svg>
